<svg xmlns="http://www.w3.org/2000/svg" width="814" height="133" viewBox="0 0 814 133" fill="none">
  <path fill="#fff" d="M64.1334 73.7072c-4.5837-6.3747-12.0651-10.5261-20.5161-10.5261-13.9464 0-25.2521 11.3058-25.2521 25.2521 0 13.9468 11.3057 25.2518 25.2521 25.2518 8.451 0 15.9324-4.151 20.5161-10.526-2.1154-4.4645-3.2987-9.457-3.2987-14.7258 0-5.2688 1.1833-10.2612 3.2987-14.726ZM72.2523 78.032c-1.4357 3.172-2.235 6.6935-2.235 10.4018 0 13.9462 11.3057 25.2522 25.2521 25.2522 13.9466 0 25.2526-11.306 25.2526-25.2522 0-12.9307-9.719-23.5914-22.2509-25.0756-5.824 8.3416-15.2478 13.9838-26.0188 14.6738ZM71.9436 68.8478c13.0464-.9841 23.3258-11.8814 23.3258-25.1797 0-13.9464-11.3058-25.2521-25.2521-25.2521-13.9464 0-25.2522 11.3057-25.2522 25.2521 0 3.7461.8157 7.3017 2.2792 10.4988 10.317 1.0194 19.2959 6.5921 24.8993 14.6809Z"/>
  <path fill="#fff" d="M60.8823 128.5c-5.2947 2.285-11.132 3.551-17.265 3.551C19.5281 132.051 0 112.522 0 88.4332c0-24.0891 19.5281-43.6173 43.6173-43.6173 9.6652 0 18.5961 3.1437 25.8261 8.4643-2.5354 1.8657-4.8615 3.9992-6.9368 6.3586-5.4233-3.5649-11.9141-5.6389-18.8893-5.6389-19.017 0-34.43335 15.4163-34.43335 34.4333 0 19.0168 15.41635 34.4338 34.43335 34.4338 3.5964 0 7.064-.552 10.3229-1.575a52.7398 52.7398 0 0 0 6.9421 7.208Z"/>
  <path fill="#fff" d="M121.83 53.8326c-.646 3.2884-1.603 6.5099-2.86 9.6204 6.612 6.2746 10.734 15.1461 10.734 24.9805 0 19.0175-15.417 34.4345-34.4346 34.4345-19.0178 0-34.4347-15.417-34.4347-34.4348 0-3.8898.6449-7.6287 1.8337-11.1161-3.0479-.6625-5.9453-1.7287-8.6333-3.1397-1.5443 4.4673-2.383 9.2637-2.383 14.2561 0 24.0895 19.5281 43.6175 43.6173 43.6175 24.0896 0 43.6176-19.528 43.6176-43.6175 0-14.0943-6.685-26.6271-17.057-34.6009Z"/>
  <path fill="#fff" d="M96.4043 78.3982c-6.9266 5.2627-15.2686 8.334-23.9541 8.8193L71.938 78.05c6.8571-.3831 13.4431-2.8079 18.9115-6.9628 5.4685-4.1548 9.5695-9.85 11.7765-16.3535 2.207-6.5036 2.419-13.5186.608-20.1435-1.81-6.6249-5.5603-12.5571-10.7681-17.0343-5.2078-4.4772-11.6355-7.2949-18.457-8.09109-6.8215-.79615-13.7253.46564-19.8242 3.62329-6.0989 3.1576-11.1143 8.0667-14.4018 14.0966a34.43165 34.43165 0 0 0-3.3035 8.6711 52.79856 52.79856 0 0 0-9.6647 1.8095 43.61642 43.61642 0 0 1 4.9066-14.8757c4.164-7.6377 10.5168-13.85584 18.2419-17.85538C57.6883.93468 66.4329-.66355 75.0733.34488c8.6404 1.00844 16.7819 4.57748 23.3784 10.24852 6.5963 5.671 11.3463 13.185 13.6393 21.5763 2.294 8.3914 2.025 17.2767-.77 25.5144-2.795 8.2377-7.99 15.4514-14.9167 20.7141ZM182.747 120.051h13.879V76.7729l33.563 43.2781h17.79l-38.483-48.8298 35.581-39.4927H228.17l-31.544 33.941v-33.941h-13.879v88.3225ZM248.895 101.755c0 12.618 8.328 19.305 19.557 19.305 8.706 0 15.267-3.154 19.684-9.337l1.261 8.328h11.104V80.5581c0-16.7812-8.454-25.1088-25.361-25.1088-12.113 0-21.324 6.8135-23.974 17.5383l11.987 2.5235c2.145-5.6779 6.056-8.4537 11.86-8.4537 7.192 0 12.365 3.5329 12.365 11.1034v2.7758h-10.977c-16.529 0-27.506 7.8229-27.506 20.8184Zm13.879 0c0-6.0559 5.047-9.8412 13.123-9.8412h11.481v1.3879c0 5.1732-1.64 9.0843-5.047 11.9863-3.28 2.776-7.191 4.164-11.608 4.164-5.173 0-7.949-3.154-7.949-7.697ZM324.741 96.4561c0-9.4631 1.64-16.6551 5.047-21.702 3.407-5.1732 7.444-7.6967 12.113-7.6967 2.902 0 5.425.6309 7.444 1.8926l2.271-11.9866c-2.523-1.0094-5.173-1.5141-8.075-1.5141-7.066 0-14.636 4.1638-18.8 11.6081V56.4587h-13.122v63.5923h13.122V96.4561ZM357.953 120.051h13.123V95.9514c0-18.1691 6.435-28.894 14.888-28.894 5.678 0 9.337 3.6591 9.337 10.3463v42.6473h13.122V94.5635c0-16.7812 6.688-27.5061 14.889-27.5061 5.678 0 9.337 3.6591 9.337 10.3463v42.6473h13.122V74.5017c0-11.4819-6.687-19.0524-18.169-19.0524-8.201 0-15.393 4.6685-19.809 13.1222-1.893-7.949-8.959-13.1222-17.539-13.1222-7.696 0-14.005 3.9114-19.178 11.8605V56.4587h-13.123v63.5923ZM455.053 101.755c0 12.618 8.327 19.305 19.557 19.305 8.706 0 15.267-3.154 19.683-9.337l1.262 8.328h11.103V80.5581c0-16.7812-8.453-25.1088-25.361-25.1088-12.113 0-21.323 6.8135-23.973 17.5383l11.987 2.5235c2.145-5.6779 6.056-8.4537 11.86-8.4537 7.192 0 12.365 3.5329 12.365 11.1034v2.7758h-10.977c-16.529 0-27.506 7.8229-27.506 20.8184Zm13.879 0c0-6.0559 5.047-9.8412 13.122-9.8412h11.482v1.3879c0 5.1732-1.64 9.0843-5.047 11.9863-3.28 2.776-7.192 4.164-11.608 4.164-5.173 0-7.949-3.154-7.949-7.697ZM515.232 95.6991c.505 7.3179 3.533 13.3749 9.085 18.1689 5.552 4.795 12.113 7.192 19.809 7.192 8.202 0 15.141-2.776 20.693-8.201 5.678-5.552 8.454-12.491 8.454-20.9452 0-7.8228-2.019-14.2577-6.183-19.1785-4.038-5.047-9.463-7.5705-16.15-7.5705-1.388 0-2.65.1262-3.659.3785l21.449-29.2725v-4.5423h-49.208v12.1128h29.904L531.13 69.3286l5.3 7.0657c2.649-1.1355 5.173-1.7664 7.696-1.7664 9.463 0 15.772 6.1826 15.772 17.2859 0 10.7252-6.309 17.0332-15.772 17.0332-8.958 0-14.258-4.92-15.898-14.8882l-12.996 1.6403ZM585.328 120.051h51.984v-13.122h-38.105V31.7285h-13.879v88.3225ZM641.372 101.755c0 12.618 8.328 19.305 19.558 19.305 8.706 0 15.267-3.154 19.683-9.337l1.262 8.328h11.103V80.5581c0-16.7812-8.454-25.1088-25.361-25.1088-12.113 0-21.324 6.8135-23.973 17.5383l11.986 2.5235c2.145-5.6779 6.057-8.4537 11.861-8.4537 7.192 0 12.365 3.5329 12.365 11.1034v2.7758h-10.977c-16.529 0-27.507 7.8229-27.507 20.8184Zm13.88 0c0-6.0559 5.047-9.8412 13.122-9.8412h11.482v1.3879c0 5.1732-1.641 9.0843-5.047 11.9863-3.281 2.776-7.192 4.164-11.608 4.164-5.173 0-7.949-3.154-7.949-7.697ZM763.017 88.2548c0-20.188-9.968-32.8055-28.642-32.8055-3.154 0-6.309.8833-9.715 2.5235-3.407 1.6403-5.804 3.4067-7.319 5.5517V30.7191h-13.122v89.3319h13.122v-7.318c2.398 4.163 9.59 8.327 17.286 8.327 18.548 0 28.39-12.113 28.39-32.8052Zm-18.422 15.5192c-3.028 3.785-6.939 5.678-11.734 5.678s-8.706-1.893-11.734-5.678c-3.029-3.9112-4.543-9.0843-4.543-15.5192 0-6.435 1.514-11.6081 4.543-15.3934 3.028-3.9114 6.939-5.804 11.734-5.804s8.706 1.8926 11.734 5.804c3.028 3.7853 4.542 8.9584 4.542 15.3934 0 6.4349-1.514 11.608-4.542 15.5192ZM791.407 55.4493c-5.678 0-10.346 1.7665-14.005 5.2994-3.66 3.4067-5.552 7.6966-5.552 12.7436 0 7.8228 4.542 13.6269 13.627 17.4121 2.019.8832 6.687 2.5235 8.58 3.4067 1.009.3786 2.145 1.0094 3.28 1.7665 2.397 1.3879 3.281 2.902 3.281 5.0474 0 5.551-2.902 8.327-8.58 8.327-5.93 0-10.599-3.785-14.006-11.4818l-11.103 6.0568c3.911 9.21 12.491 17.033 24.604 17.033 6.687 0 11.987-1.892 16.024-5.804 4.038-3.911 6.057-8.706 6.057-14.384-.505-6.9394-2.902-10.7246-7.949-13.7528-3.533-2.3973-5.426-3.0282-9.842-4.6685-5.425-2.0188-7.57-3.0282-9.715-5.1731-1.136-1.1356-1.641-2.5235-1.641-3.9115 0-4.0375 2.776-6.3087 6.309-6.3087 4.416 0 8.075 1.8926 11.103 5.804l8.328-7.3181c-4.038-6.1826-11.103-10.094-18.8-10.094Z"/>
</svg>